<?xml version="1.0" encoding="utf-8" standalone="no"?>
<!DOCTYPE svg PUBLIC "-//W3C//DTD SVG 1.1//EN"
  "http://www.w3.org/Graphics/SVG/1.1/DTD/svg11.dtd">
<svg xmlns:xlink="http://www.w3.org/1999/xlink" width="864pt" height="360pt" viewBox="0 0 864 360" xmlns="http://www.w3.org/2000/svg" version="1.1">
 <metadata>
  <rdf:RDF xmlns:dc="http://purl.org/dc/elements/1.1/" xmlns:cc="http://creativecommons.org/ns#" xmlns:rdf="http://www.w3.org/1999/02/22-rdf-syntax-ns#">
   <cc:Work>
    <dc:type rdf:resource="http://purl.org/dc/dcmitype/StillImage"/>
    <dc:date>2024-09-23T08:13:25.698921</dc:date>
    <dc:format>image/svg+xml</dc:format>
    <dc:creator>
     <cc:Agent>
      <dc:title>Matplotlib v3.9.2, https://matplotlib.org/</dc:title>
     </cc:Agent>
    </dc:creator>
   </cc:Work>
  </rdf:RDF>
 </metadata>
 <defs>
  <style type="text/css">*{stroke-linejoin: round; stroke-linecap: butt}</style>
 </defs>
 <g id="figure_1">
  <g id="patch_1">
   <path d="M 0 360 
L 864 360 
L 864 0 
L 0 0 
L 0 360 
z
" style="fill: none; opacity: 0"/>
  </g>
  <g id="axes_1">
   <g id="patch_2">
    <path d="M 108 320.4 
L 777.6 320.4 
L 777.6 43.2 
L 108 43.2 
L 108 320.4 
z
" style="fill: none; opacity: 0"/>
   </g>
   <g id="matplotlib.axis_1">
    <g id="xtick_1">
     <g id="line2d_1">
      <path d="M 158.95526 320.4 
L 158.95526 43.2 
" clip-path="url(#p7fb41e40c1)" style="fill: none; stroke-dasharray: 5.12,1.28,0.8,1.28; stroke-dashoffset: 0; stroke: #b0b0b0; stroke-width: 0.8"/>
     </g>
     <g id="line2d_2">
      <defs>
       <path id="m56f5da89bd" d="M 0 0 
L 0 3.5 
" style="stroke: #a9a9a9; stroke-width: 0.8"/>
      </defs>
      <g>
       <use xlink:href="#m56f5da89bd" x="158.95526" y="320.4" style="fill: #a9a9a9; stroke: #a9a9a9; stroke-width: 0.8"/>
      </g>
     </g>
     <g id="text_1">
      <!-- 2021-09 -->
      <g style="fill: #a9a9a9" transform="translate(138.063854 334.998438) scale(0.1 -0.1)">
       <defs>
        <path id="DejaVuSans-32" d="M 1228 531 
L 3431 531 
L 3431 0 
L 469 0 
L 469 531 
Q 828 903 1448 1529 
Q 2069 2156 2228 2338 
Q 2531 2678 2651 2914 
Q 2772 3150 2772 3378 
Q 2772 3750 2511 3984 
Q 2250 4219 1831 4219 
Q 1534 4219 1204 4116 
Q 875 4013 500 3803 
L 500 4441 
Q 881 4594 1212 4672 
Q 1544 4750 1819 4750 
Q 2544 4750 2975 4387 
Q 3406 4025 3406 3419 
Q 3406 3131 3298 2873 
Q 3191 2616 2906 2266 
Q 2828 2175 2409 1742 
Q 1991 1309 1228 531 
z
" transform="scale(0.015625)"/>
        <path id="DejaVuSans-30" d="M 2034 4250 
Q 1547 4250 1301 3770 
Q 1056 3291 1056 2328 
Q 1056 1369 1301 889 
Q 1547 409 2034 409 
Q 2525 409 2770 889 
Q 3016 1369 3016 2328 
Q 3016 3291 2770 3770 
Q 2525 4250 2034 4250 
z
M 2034 4750 
Q 2819 4750 3233 4129 
Q 3647 3509 3647 2328 
Q 3647 1150 3233 529 
Q 2819 -91 2034 -91 
Q 1250 -91 836 529 
Q 422 1150 422 2328 
Q 422 3509 836 4129 
Q 1250 4750 2034 4750 
z
" transform="scale(0.015625)"/>
        <path id="DejaVuSans-31" d="M 794 531 
L 1825 531 
L 1825 4091 
L 703 3866 
L 703 4441 
L 1819 4666 
L 2450 4666 
L 2450 531 
L 3481 531 
L 3481 0 
L 794 0 
L 794 531 
z
" transform="scale(0.015625)"/>
        <path id="DejaVuSans-2d" d="M 313 2009 
L 1997 2009 
L 1997 1497 
L 313 1497 
L 313 2009 
z
" transform="scale(0.015625)"/>
        <path id="DejaVuSans-39" d="M 703 97 
L 703 672 
Q 941 559 1184 500 
Q 1428 441 1663 441 
Q 2288 441 2617 861 
Q 2947 1281 2994 2138 
Q 2813 1869 2534 1725 
Q 2256 1581 1919 1581 
Q 1219 1581 811 2004 
Q 403 2428 403 3163 
Q 403 3881 828 4315 
Q 1253 4750 1959 4750 
Q 2769 4750 3195 4129 
Q 3622 3509 3622 2328 
Q 3622 1225 3098 567 
Q 2575 -91 1691 -91 
Q 1453 -91 1209 -44 
Q 966 3 703 97 
z
M 1959 2075 
Q 2384 2075 2632 2365 
Q 2881 2656 2881 3163 
Q 2881 3666 2632 3958 
Q 2384 4250 1959 4250 
Q 1534 4250 1286 3958 
Q 1038 3666 1038 3163 
Q 1038 2656 1286 2365 
Q 1534 2075 1959 2075 
z
" transform="scale(0.015625)"/>
       </defs>
       <use xlink:href="#DejaVuSans-32"/>
       <use xlink:href="#DejaVuSans-30" x="63.623047"/>
       <use xlink:href="#DejaVuSans-32" x="127.246094"/>
       <use xlink:href="#DejaVuSans-31" x="190.869141"/>
       <use xlink:href="#DejaVuSans-2d" x="254.492188"/>
       <use xlink:href="#DejaVuSans-30" x="290.576172"/>
       <use xlink:href="#DejaVuSans-39" x="354.199219"/>
      </g>
     </g>
    </g>
    <g id="xtick_2">
     <g id="line2d_3">
      <path d="M 223.142579 320.4 
L 223.142579 43.2 
" clip-path="url(#p7fb41e40c1)" style="fill: none; stroke-dasharray: 5.12,1.28,0.8,1.28; stroke-dashoffset: 0; stroke: #b0b0b0; stroke-width: 0.8"/>
     </g>
     <g id="line2d_4">
      <g>
       <use xlink:href="#m56f5da89bd" x="223.142579" y="320.4" style="fill: #a9a9a9; stroke: #a9a9a9; stroke-width: 0.8"/>
      </g>
     </g>
     <g id="text_2">
      <!-- 2022-01 -->
      <g style="fill: #a9a9a9" transform="translate(202.251173 334.998438) scale(0.1 -0.1)">
       <use xlink:href="#DejaVuSans-32"/>
       <use xlink:href="#DejaVuSans-30" x="63.623047"/>
       <use xlink:href="#DejaVuSans-32" x="127.246094"/>
       <use xlink:href="#DejaVuSans-32" x="190.869141"/>
       <use xlink:href="#DejaVuSans-2d" x="254.492188"/>
       <use xlink:href="#DejaVuSans-30" x="290.576172"/>
       <use xlink:href="#DejaVuSans-31" x="354.199219"/>
      </g>
     </g>
    </g>
    <g id="xtick_3">
     <g id="line2d_5">
      <path d="M 286.277646 320.4 
L 286.277646 43.2 
" clip-path="url(#p7fb41e40c1)" style="fill: none; stroke-dasharray: 5.12,1.28,0.8,1.28; stroke-dashoffset: 0; stroke: #b0b0b0; stroke-width: 0.8"/>
     </g>
     <g id="line2d_6">
      <g>
       <use xlink:href="#m56f5da89bd" x="286.277646" y="320.4" style="fill: #a9a9a9; stroke: #a9a9a9; stroke-width: 0.8"/>
      </g>
     </g>
     <g id="text_3">
      <!-- 2022-05 -->
      <g style="fill: #a9a9a9" transform="translate(265.38624 334.998438) scale(0.1 -0.1)">
       <defs>
        <path id="DejaVuSans-35" d="M 691 4666 
L 3169 4666 
L 3169 4134 
L 1269 4134 
L 1269 2991 
Q 1406 3038 1543 3061 
Q 1681 3084 1819 3084 
Q 2600 3084 3056 2656 
Q 3513 2228 3513 1497 
Q 3513 744 3044 326 
Q 2575 -91 1722 -91 
Q 1428 -91 1123 -41 
Q 819 9 494 109 
L 494 744 
Q 775 591 1075 516 
Q 1375 441 1709 441 
Q 2250 441 2565 725 
Q 2881 1009 2881 1497 
Q 2881 1984 2565 2268 
Q 2250 2553 1709 2553 
Q 1456 2553 1204 2497 
Q 953 2441 691 2322 
L 691 4666 
z
" transform="scale(0.015625)"/>
       </defs>
       <use xlink:href="#DejaVuSans-32"/>
       <use xlink:href="#DejaVuSans-30" x="63.623047"/>
       <use xlink:href="#DejaVuSans-32" x="127.246094"/>
       <use xlink:href="#DejaVuSans-32" x="190.869141"/>
       <use xlink:href="#DejaVuSans-2d" x="254.492188"/>
       <use xlink:href="#DejaVuSans-30" x="290.576172"/>
       <use xlink:href="#DejaVuSans-35" x="354.199219"/>
      </g>
     </g>
    </g>
    <g id="xtick_4">
     <g id="line2d_7">
      <path d="M 350.99109 320.4 
L 350.99109 43.2 
" clip-path="url(#p7fb41e40c1)" style="fill: none; stroke-dasharray: 5.12,1.28,0.8,1.28; stroke-dashoffset: 0; stroke: #b0b0b0; stroke-width: 0.8"/>
     </g>
     <g id="line2d_8">
      <g>
       <use xlink:href="#m56f5da89bd" x="350.99109" y="320.4" style="fill: #a9a9a9; stroke: #a9a9a9; stroke-width: 0.8"/>
      </g>
     </g>
     <g id="text_4">
      <!-- 2022-09 -->
      <g style="fill: #a9a9a9" transform="translate(330.099684 334.998438) scale(0.1 -0.1)">
       <use xlink:href="#DejaVuSans-32"/>
       <use xlink:href="#DejaVuSans-30" x="63.623047"/>
       <use xlink:href="#DejaVuSans-32" x="127.246094"/>
       <use xlink:href="#DejaVuSans-32" x="190.869141"/>
       <use xlink:href="#DejaVuSans-2d" x="254.492188"/>
       <use xlink:href="#DejaVuSans-30" x="290.576172"/>
       <use xlink:href="#DejaVuSans-39" x="354.199219"/>
      </g>
     </g>
    </g>
    <g id="xtick_5">
     <g id="line2d_9">
      <path d="M 415.178408 320.4 
L 415.178408 43.2 
" clip-path="url(#p7fb41e40c1)" style="fill: none; stroke-dasharray: 5.12,1.28,0.8,1.28; stroke-dashoffset: 0; stroke: #b0b0b0; stroke-width: 0.8"/>
     </g>
     <g id="line2d_10">
      <g>
       <use xlink:href="#m56f5da89bd" x="415.178408" y="320.4" style="fill: #a9a9a9; stroke: #a9a9a9; stroke-width: 0.8"/>
      </g>
     </g>
     <g id="text_5">
      <!-- 2023-01 -->
      <g style="fill: #a9a9a9" transform="translate(394.287002 334.998438) scale(0.1 -0.1)">
       <defs>
        <path id="DejaVuSans-33" d="M 2597 2516 
Q 3050 2419 3304 2112 
Q 3559 1806 3559 1356 
Q 3559 666 3084 287 
Q 2609 -91 1734 -91 
Q 1441 -91 1130 -33 
Q 819 25 488 141 
L 488 750 
Q 750 597 1062 519 
Q 1375 441 1716 441 
Q 2309 441 2620 675 
Q 2931 909 2931 1356 
Q 2931 1769 2642 2001 
Q 2353 2234 1838 2234 
L 1294 2234 
L 1294 2753 
L 1863 2753 
Q 2328 2753 2575 2939 
Q 2822 3125 2822 3475 
Q 2822 3834 2567 4026 
Q 2313 4219 1838 4219 
Q 1578 4219 1281 4162 
Q 984 4106 628 3988 
L 628 4550 
Q 988 4650 1302 4700 
Q 1616 4750 1894 4750 
Q 2613 4750 3031 4423 
Q 3450 4097 3450 3541 
Q 3450 3153 3228 2886 
Q 3006 2619 2597 2516 
z
" transform="scale(0.015625)"/>
       </defs>
       <use xlink:href="#DejaVuSans-32"/>
       <use xlink:href="#DejaVuSans-30" x="63.623047"/>
       <use xlink:href="#DejaVuSans-32" x="127.246094"/>
       <use xlink:href="#DejaVuSans-33" x="190.869141"/>
       <use xlink:href="#DejaVuSans-2d" x="254.492188"/>
       <use xlink:href="#DejaVuSans-30" x="290.576172"/>
       <use xlink:href="#DejaVuSans-31" x="354.199219"/>
      </g>
     </g>
    </g>
    <g id="xtick_6">
     <g id="line2d_11">
      <path d="M 478.313475 320.4 
L 478.313475 43.2 
" clip-path="url(#p7fb41e40c1)" style="fill: none; stroke-dasharray: 5.12,1.28,0.8,1.28; stroke-dashoffset: 0; stroke: #b0b0b0; stroke-width: 0.8"/>
     </g>
     <g id="line2d_12">
      <g>
       <use xlink:href="#m56f5da89bd" x="478.313475" y="320.4" style="fill: #a9a9a9; stroke: #a9a9a9; stroke-width: 0.8"/>
      </g>
     </g>
     <g id="text_6">
      <!-- 2023-05 -->
      <g style="fill: #a9a9a9" transform="translate(457.422069 334.998438) scale(0.1 -0.1)">
       <use xlink:href="#DejaVuSans-32"/>
       <use xlink:href="#DejaVuSans-30" x="63.623047"/>
       <use xlink:href="#DejaVuSans-32" x="127.246094"/>
       <use xlink:href="#DejaVuSans-33" x="190.869141"/>
       <use xlink:href="#DejaVuSans-2d" x="254.492188"/>
       <use xlink:href="#DejaVuSans-30" x="290.576172"/>
       <use xlink:href="#DejaVuSans-35" x="354.199219"/>
      </g>
     </g>
    </g>
    <g id="xtick_7">
     <g id="line2d_13">
      <path d="M 543.026919 320.4 
L 543.026919 43.2 
" clip-path="url(#p7fb41e40c1)" style="fill: none; stroke-dasharray: 5.12,1.28,0.8,1.28; stroke-dashoffset: 0; stroke: #b0b0b0; stroke-width: 0.8"/>
     </g>
     <g id="line2d_14">
      <g>
       <use xlink:href="#m56f5da89bd" x="543.026919" y="320.4" style="fill: #a9a9a9; stroke: #a9a9a9; stroke-width: 0.8"/>
      </g>
     </g>
     <g id="text_7">
      <!-- 2023-09 -->
      <g style="fill: #a9a9a9" transform="translate(522.135513 334.998438) scale(0.1 -0.1)">
       <use xlink:href="#DejaVuSans-32"/>
       <use xlink:href="#DejaVuSans-30" x="63.623047"/>
       <use xlink:href="#DejaVuSans-32" x="127.246094"/>
       <use xlink:href="#DejaVuSans-33" x="190.869141"/>
       <use xlink:href="#DejaVuSans-2d" x="254.492188"/>
       <use xlink:href="#DejaVuSans-30" x="290.576172"/>
       <use xlink:href="#DejaVuSans-39" x="354.199219"/>
      </g>
     </g>
    </g>
    <g id="xtick_8">
     <g id="line2d_15">
      <path d="M 607.214237 320.4 
L 607.214237 43.2 
" clip-path="url(#p7fb41e40c1)" style="fill: none; stroke-dasharray: 5.12,1.28,0.8,1.28; stroke-dashoffset: 0; stroke: #b0b0b0; stroke-width: 0.8"/>
     </g>
     <g id="line2d_16">
      <g>
       <use xlink:href="#m56f5da89bd" x="607.214237" y="320.4" style="fill: #a9a9a9; stroke: #a9a9a9; stroke-width: 0.8"/>
      </g>
     </g>
     <g id="text_8">
      <!-- 2024-01 -->
      <g style="fill: #a9a9a9" transform="translate(586.322831 334.998438) scale(0.1 -0.1)">
       <defs>
        <path id="DejaVuSans-34" d="M 2419 4116 
L 825 1625 
L 2419 1625 
L 2419 4116 
z
M 2253 4666 
L 3047 4666 
L 3047 1625 
L 3713 1625 
L 3713 1100 
L 3047 1100 
L 3047 0 
L 2419 0 
L 2419 1100 
L 313 1100 
L 313 1709 
L 2253 4666 
z
" transform="scale(0.015625)"/>
       </defs>
       <use xlink:href="#DejaVuSans-32"/>
       <use xlink:href="#DejaVuSans-30" x="63.623047"/>
       <use xlink:href="#DejaVuSans-32" x="127.246094"/>
       <use xlink:href="#DejaVuSans-34" x="190.869141"/>
       <use xlink:href="#DejaVuSans-2d" x="254.492188"/>
       <use xlink:href="#DejaVuSans-30" x="290.576172"/>
       <use xlink:href="#DejaVuSans-31" x="354.199219"/>
      </g>
     </g>
    </g>
    <g id="xtick_9">
     <g id="line2d_17">
      <path d="M 670.87543 320.4 
L 670.87543 43.2 
" clip-path="url(#p7fb41e40c1)" style="fill: none; stroke-dasharray: 5.12,1.28,0.8,1.28; stroke-dashoffset: 0; stroke: #b0b0b0; stroke-width: 0.8"/>
     </g>
     <g id="line2d_18">
      <g>
       <use xlink:href="#m56f5da89bd" x="670.87543" y="320.4" style="fill: #a9a9a9; stroke: #a9a9a9; stroke-width: 0.8"/>
      </g>
     </g>
     <g id="text_9">
      <!-- 2024-05 -->
      <g style="fill: #a9a9a9" transform="translate(649.984024 334.998438) scale(0.1 -0.1)">
       <use xlink:href="#DejaVuSans-32"/>
       <use xlink:href="#DejaVuSans-30" x="63.623047"/>
       <use xlink:href="#DejaVuSans-32" x="127.246094"/>
       <use xlink:href="#DejaVuSans-34" x="190.869141"/>
       <use xlink:href="#DejaVuSans-2d" x="254.492188"/>
       <use xlink:href="#DejaVuSans-30" x="290.576172"/>
       <use xlink:href="#DejaVuSans-35" x="354.199219"/>
      </g>
     </g>
    </g>
    <g id="xtick_10">
     <g id="line2d_19">
      <path d="M 735.588874 320.4 
L 735.588874 43.2 
" clip-path="url(#p7fb41e40c1)" style="fill: none; stroke-dasharray: 5.12,1.28,0.8,1.28; stroke-dashoffset: 0; stroke: #b0b0b0; stroke-width: 0.8"/>
     </g>
     <g id="line2d_20">
      <g>
       <use xlink:href="#m56f5da89bd" x="735.588874" y="320.4" style="fill: #a9a9a9; stroke: #a9a9a9; stroke-width: 0.8"/>
      </g>
     </g>
     <g id="text_10">
      <!-- 2024-09 -->
      <g style="fill: #a9a9a9" transform="translate(714.697468 334.998438) scale(0.1 -0.1)">
       <use xlink:href="#DejaVuSans-32"/>
       <use xlink:href="#DejaVuSans-30" x="63.623047"/>
       <use xlink:href="#DejaVuSans-32" x="127.246094"/>
       <use xlink:href="#DejaVuSans-34" x="190.869141"/>
       <use xlink:href="#DejaVuSans-2d" x="254.492188"/>
       <use xlink:href="#DejaVuSans-30" x="290.576172"/>
       <use xlink:href="#DejaVuSans-39" x="354.199219"/>
      </g>
     </g>
    </g>
   </g>
   <g id="matplotlib.axis_2">
    <g id="ytick_1">
     <g id="line2d_21">
      <path d="M 108 307.837522 
L 777.6 307.837522 
" clip-path="url(#p7fb41e40c1)" style="fill: none; stroke-dasharray: 5.12,1.28,0.8,1.28; stroke-dashoffset: 0; stroke: #b0b0b0; stroke-width: 0.8"/>
     </g>
     <g id="line2d_22">
      <defs>
       <path id="m86b8a4508f" d="M 0 0 
L -3.5 0 
" style="stroke: #a9a9a9; stroke-width: 0.8"/>
      </defs>
      <g>
       <use xlink:href="#m86b8a4508f" x="108" y="307.837522" style="fill: #a9a9a9; stroke: #a9a9a9; stroke-width: 0.8"/>
      </g>
     </g>
     <g id="text_11">
      <!-- 0 -->
      <g style="fill: #a9a9a9" transform="translate(94.6375 311.636741) scale(0.1 -0.1)">
       <use xlink:href="#DejaVuSans-30"/>
      </g>
     </g>
    </g>
    <g id="ytick_2">
     <g id="line2d_23">
      <path d="M 108 277.819655 
L 777.6 277.819655 
" clip-path="url(#p7fb41e40c1)" style="fill: none; stroke-dasharray: 5.12,1.28,0.8,1.28; stroke-dashoffset: 0; stroke: #b0b0b0; stroke-width: 0.8"/>
     </g>
     <g id="line2d_24">
      <g>
       <use xlink:href="#m86b8a4508f" x="108" y="277.819655" style="fill: #a9a9a9; stroke: #a9a9a9; stroke-width: 0.8"/>
      </g>
     </g>
     <g id="text_12">
      <!-- 800 -->
      <g style="fill: #a9a9a9" transform="translate(81.9125 281.618873) scale(0.1 -0.1)">
       <defs>
        <path id="DejaVuSans-38" d="M 2034 2216 
Q 1584 2216 1326 1975 
Q 1069 1734 1069 1313 
Q 1069 891 1326 650 
Q 1584 409 2034 409 
Q 2484 409 2743 651 
Q 3003 894 3003 1313 
Q 3003 1734 2745 1975 
Q 2488 2216 2034 2216 
z
M 1403 2484 
Q 997 2584 770 2862 
Q 544 3141 544 3541 
Q 544 4100 942 4425 
Q 1341 4750 2034 4750 
Q 2731 4750 3128 4425 
Q 3525 4100 3525 3541 
Q 3525 3141 3298 2862 
Q 3072 2584 2669 2484 
Q 3125 2378 3379 2068 
Q 3634 1759 3634 1313 
Q 3634 634 3220 271 
Q 2806 -91 2034 -91 
Q 1263 -91 848 271 
Q 434 634 434 1313 
Q 434 1759 690 2068 
Q 947 2378 1403 2484 
z
M 1172 3481 
Q 1172 3119 1398 2916 
Q 1625 2713 2034 2713 
Q 2441 2713 2670 2916 
Q 2900 3119 2900 3481 
Q 2900 3844 2670 4047 
Q 2441 4250 2034 4250 
Q 1625 4250 1398 4047 
Q 1172 3844 1172 3481 
z
" transform="scale(0.015625)"/>
       </defs>
       <use xlink:href="#DejaVuSans-38"/>
       <use xlink:href="#DejaVuSans-30" x="63.623047"/>
       <use xlink:href="#DejaVuSans-30" x="127.246094"/>
      </g>
     </g>
    </g>
    <g id="ytick_3">
     <g id="line2d_25">
      <path d="M 108 247.801787 
L 777.6 247.801787 
" clip-path="url(#p7fb41e40c1)" style="fill: none; stroke-dasharray: 5.12,1.28,0.8,1.28; stroke-dashoffset: 0; stroke: #b0b0b0; stroke-width: 0.8"/>
     </g>
     <g id="line2d_26">
      <g>
       <use xlink:href="#m86b8a4508f" x="108" y="247.801787" style="fill: #a9a9a9; stroke: #a9a9a9; stroke-width: 0.8"/>
      </g>
     </g>
     <g id="text_13">
      <!-- 1600 -->
      <g style="fill: #a9a9a9" transform="translate(75.55 251.601006) scale(0.1 -0.1)">
       <defs>
        <path id="DejaVuSans-36" d="M 2113 2584 
Q 1688 2584 1439 2293 
Q 1191 2003 1191 1497 
Q 1191 994 1439 701 
Q 1688 409 2113 409 
Q 2538 409 2786 701 
Q 3034 994 3034 1497 
Q 3034 2003 2786 2293 
Q 2538 2584 2113 2584 
z
M 3366 4563 
L 3366 3988 
Q 3128 4100 2886 4159 
Q 2644 4219 2406 4219 
Q 1781 4219 1451 3797 
Q 1122 3375 1075 2522 
Q 1259 2794 1537 2939 
Q 1816 3084 2150 3084 
Q 2853 3084 3261 2657 
Q 3669 2231 3669 1497 
Q 3669 778 3244 343 
Q 2819 -91 2113 -91 
Q 1303 -91 875 529 
Q 447 1150 447 2328 
Q 447 3434 972 4092 
Q 1497 4750 2381 4750 
Q 2619 4750 2861 4703 
Q 3103 4656 3366 4563 
z
" transform="scale(0.015625)"/>
       </defs>
       <use xlink:href="#DejaVuSans-31"/>
       <use xlink:href="#DejaVuSans-36" x="63.623047"/>
       <use xlink:href="#DejaVuSans-30" x="127.246094"/>
       <use xlink:href="#DejaVuSans-30" x="190.869141"/>
      </g>
     </g>
    </g>
    <g id="ytick_4">
     <g id="line2d_27">
      <path d="M 108 217.783919 
L 777.6 217.783919 
" clip-path="url(#p7fb41e40c1)" style="fill: none; stroke-dasharray: 5.12,1.28,0.8,1.28; stroke-dashoffset: 0; stroke: #b0b0b0; stroke-width: 0.8"/>
     </g>
     <g id="line2d_28">
      <g>
       <use xlink:href="#m86b8a4508f" x="108" y="217.783919" style="fill: #a9a9a9; stroke: #a9a9a9; stroke-width: 0.8"/>
      </g>
     </g>
     <g id="text_14">
      <!-- 2400 -->
      <g style="fill: #a9a9a9" transform="translate(75.55 221.583138) scale(0.1 -0.1)">
       <use xlink:href="#DejaVuSans-32"/>
       <use xlink:href="#DejaVuSans-34" x="63.623047"/>
       <use xlink:href="#DejaVuSans-30" x="127.246094"/>
       <use xlink:href="#DejaVuSans-30" x="190.869141"/>
      </g>
     </g>
    </g>
    <g id="ytick_5">
     <g id="line2d_29">
      <path d="M 108 187.766051 
L 777.6 187.766051 
" clip-path="url(#p7fb41e40c1)" style="fill: none; stroke-dasharray: 5.12,1.28,0.8,1.28; stroke-dashoffset: 0; stroke: #b0b0b0; stroke-width: 0.8"/>
     </g>
     <g id="line2d_30">
      <g>
       <use xlink:href="#m86b8a4508f" x="108" y="187.766051" style="fill: #a9a9a9; stroke: #a9a9a9; stroke-width: 0.8"/>
      </g>
     </g>
     <g id="text_15">
      <!-- 3200 -->
      <g style="fill: #a9a9a9" transform="translate(75.55 191.56527) scale(0.1 -0.1)">
       <use xlink:href="#DejaVuSans-33"/>
       <use xlink:href="#DejaVuSans-32" x="63.623047"/>
       <use xlink:href="#DejaVuSans-30" x="127.246094"/>
       <use xlink:href="#DejaVuSans-30" x="190.869141"/>
      </g>
     </g>
    </g>
    <g id="ytick_6">
     <g id="line2d_31">
      <path d="M 108 157.748183 
L 777.6 157.748183 
" clip-path="url(#p7fb41e40c1)" style="fill: none; stroke-dasharray: 5.12,1.28,0.8,1.28; stroke-dashoffset: 0; stroke: #b0b0b0; stroke-width: 0.8"/>
     </g>
     <g id="line2d_32">
      <g>
       <use xlink:href="#m86b8a4508f" x="108" y="157.748183" style="fill: #a9a9a9; stroke: #a9a9a9; stroke-width: 0.8"/>
      </g>
     </g>
     <g id="text_16">
      <!-- 4000 -->
      <g style="fill: #a9a9a9" transform="translate(75.55 161.547402) scale(0.1 -0.1)">
       <use xlink:href="#DejaVuSans-34"/>
       <use xlink:href="#DejaVuSans-30" x="63.623047"/>
       <use xlink:href="#DejaVuSans-30" x="127.246094"/>
       <use xlink:href="#DejaVuSans-30" x="190.869141"/>
      </g>
     </g>
    </g>
    <g id="ytick_7">
     <g id="line2d_33">
      <path d="M 108 127.730316 
L 777.6 127.730316 
" clip-path="url(#p7fb41e40c1)" style="fill: none; stroke-dasharray: 5.12,1.28,0.8,1.28; stroke-dashoffset: 0; stroke: #b0b0b0; stroke-width: 0.8"/>
     </g>
     <g id="line2d_34">
      <g>
       <use xlink:href="#m86b8a4508f" x="108" y="127.730316" style="fill: #a9a9a9; stroke: #a9a9a9; stroke-width: 0.8"/>
      </g>
     </g>
     <g id="text_17">
      <!-- 4800 -->
      <g style="fill: #a9a9a9" transform="translate(75.55 131.529534) scale(0.1 -0.1)">
       <use xlink:href="#DejaVuSans-34"/>
       <use xlink:href="#DejaVuSans-38" x="63.623047"/>
       <use xlink:href="#DejaVuSans-30" x="127.246094"/>
       <use xlink:href="#DejaVuSans-30" x="190.869141"/>
      </g>
     </g>
    </g>
    <g id="ytick_8">
     <g id="line2d_35">
      <path d="M 108 97.712448 
L 777.6 97.712448 
" clip-path="url(#p7fb41e40c1)" style="fill: none; stroke-dasharray: 5.12,1.28,0.8,1.28; stroke-dashoffset: 0; stroke: #b0b0b0; stroke-width: 0.8"/>
     </g>
     <g id="line2d_36">
      <g>
       <use xlink:href="#m86b8a4508f" x="108" y="97.712448" style="fill: #a9a9a9; stroke: #a9a9a9; stroke-width: 0.8"/>
      </g>
     </g>
     <g id="text_18">
      <!-- 5600 -->
      <g style="fill: #a9a9a9" transform="translate(75.55 101.511667) scale(0.1 -0.1)">
       <use xlink:href="#DejaVuSans-35"/>
       <use xlink:href="#DejaVuSans-36" x="63.623047"/>
       <use xlink:href="#DejaVuSans-30" x="127.246094"/>
       <use xlink:href="#DejaVuSans-30" x="190.869141"/>
      </g>
     </g>
    </g>
    <g id="ytick_9">
     <g id="line2d_37">
      <path d="M 108 67.69458 
L 777.6 67.69458 
" clip-path="url(#p7fb41e40c1)" style="fill: none; stroke-dasharray: 5.12,1.28,0.8,1.28; stroke-dashoffset: 0; stroke: #b0b0b0; stroke-width: 0.8"/>
     </g>
     <g id="line2d_38">
      <g>
       <use xlink:href="#m86b8a4508f" x="108" y="67.69458" style="fill: #a9a9a9; stroke: #a9a9a9; stroke-width: 0.8"/>
      </g>
     </g>
     <g id="text_19">
      <!-- 6400 -->
      <g style="fill: #a9a9a9" transform="translate(75.55 71.493799) scale(0.1 -0.1)">
       <use xlink:href="#DejaVuSans-36"/>
       <use xlink:href="#DejaVuSans-34" x="63.623047"/>
       <use xlink:href="#DejaVuSans-30" x="127.246094"/>
       <use xlink:href="#DejaVuSans-30" x="190.869141"/>
      </g>
     </g>
    </g>
   </g>
   <g id="line2d_39">
    <path d="M 138.436364 307.724955 
L 141.593117 307.462299 
L 142.119243 307.237165 
L 143.697619 307.087076 
L 147.380498 306.411674 
L 150.011126 306.18654 
L 151.063377 305.773794 
L 151.589503 305.098392 
L 152.115628 304.723169 
L 152.641754 303.559976 
L 153.167879 303.484932 
L 153.694005 303.072186 
L 154.746256 302.546873 
L 156.850758 300.89589 
L 158.95526 299.882787 
L 160.533637 299.169863 
L 161.059763 298.344372 
L 162.112014 297.593925 
L 162.638139 297.368791 
L 167.899395 296.618344 
L 168.425521 296.39321 
L 172.108399 296.093032 
L 174.212902 295.605241 
L 178.421906 295.042406 
L 178.948032 294.77975 
L 179.474157 294.704705 
L 180.526408 294.367004 
L 184.209287 293.766647 
L 185.261538 293.466468 
L 186.839915 293.316379 
L 187.892166 293.203812 
L 190.522794 292.52841 
L 191.575045 292.453365 
L 192.627296 292.303276 
L 193.679547 292.078142 
L 194.205673 291.928052 
L 194.731799 291.215128 
L 196.310175 290.614771 
L 197.888552 290.202025 
L 198.414677 289.939369 
L 198.940803 289.901846 
L 201.571431 289.1514 
L 202.623682 289.076355 
L 203.149807 289.00131 
L 204.728184 288.51352 
L 206.832686 287.988207 
L 207.358812 287.763073 
L 207.884938 287.688029 
L 208.411063 287.425372 
L 213.672319 286.637403 
L 216.302946 285.886957 
L 216.829072 285.549256 
L 219.4597 284.686242 
L 220.511951 283.973317 
L 222.090328 283.673139 
L 232.086713 280.783919 
L 233.138964 280.371173 
L 234.191216 280.296129 
L 235.769592 279.845861 
L 236.295718 279.845861 
L 236.821843 279.620727 
L 237.874094 279.50816 
L 238.40022 279.320548 
L 239.452471 279.283026 
L 241.556973 279.020369 
L 242.609224 278.495057 
L 248.922731 275.680881 
L 249.448857 275.118046 
L 250.501108 273.542108 
L 251.027233 273.392019 
L 251.553359 273.392019 
L 252.60561 272.60405 
L 254.183987 272.078737 
L 254.710112 271.590947 
L 255.762363 271.178201 
L 256.814615 270.690411 
L 257.866866 269.189518 
L 258.392991 268.851817 
L 258.919117 267.951281 
L 259.445242 267.388446 
L 262.601996 265.737463 
L 263.654247 264.911971 
L 264.180372 264.57427 
L 264.706498 263.786301 
L 265.232624 262.623109 
L 265.758749 261.83514 
L 266.284875 261.422394 
L 266.811 261.19726 
L 270.493879 258.120429 
L 271.020005 257.407504 
L 272.072256 256.469446 
L 274.176758 255.08112 
L 274.702884 254.630852 
L 275.755135 254.293151 
L 277.333511 253.392615 
L 278.911888 252.379512 
L 281.01639 250.503395 
L 282.068641 250.090649 
L 283.120893 249.377725 
L 283.647018 249.077546 
L 284.173144 249.002501 
L 287.856023 246.713639 
L 289.960525 245.587969 
L 290.48665 245.100179 
L 298.904659 242.173437 
L 299.956911 241.235378 
L 301.009162 240.747588 
L 302.061413 240.184753 
L 302.587538 239.884574 
L 303.639789 239.584395 
L 304.165915 239.246694 
L 304.692041 239.096605 
L 306.270417 238.083502 
L 308.901045 237.483145 
L 310.479422 236.582609 
L 311.005547 236.507564 
L 312.057798 236.244908 
L 312.583924 236.094818 
L 314.162301 234.894104 
L 316.266803 234.331269 
L 316.792928 233.918523 
L 319.949682 232.867898 
L 320.475807 232.830375 
L 322.054184 232.26754 
L 325.737063 230.954258 
L 326.789314 230.804169 
L 328.367691 230.278856 
L 330.998319 229.040619 
L 333.102821 227.914949 
L 337.311825 226.226444 
L 337.837951 226.1514 
L 338.890202 225.51352 
L 339.416327 225.438475 
L 341.52083 224.575462 
L 343.625332 224.275283 
L 344.677583 223.74997 
L 345.203709 223.299702 
L 345.729834 222.361644 
L 347.834336 221.798809 
L 349.412713 221.01084 
L 349.938839 220.898273 
L 354.147843 218.909589 
L 355.72622 218.571888 
L 356.778471 218.046575 
L 357.304597 217.821441 
L 357.830722 217.746397 
L 359.935224 216.808338 
L 361.513601 215.832758 
L 362.039727 215.757713 
L 362.565852 215.570101 
L 363.091978 215.532579 
L 365.722605 214.894699 
L 366.248731 214.481954 
L 367.827108 213.919119 
L 369.93161 213.093627 
L 370.457736 212.718404 
L 370.983861 212.530792 
L 372.036112 211.967957 
L 374.66674 211.104943 
L 376.245117 209.866706 
L 376.771242 209.754139 
L 377.823493 208.928648 
L 378.349619 208.853603 
L 378.875744 208.028112 
L 379.40187 207.802978 
L 379.927996 207.390232 
L 380.454121 207.315188 
L 381.506372 206.677308 
L 382.558623 206.339607 
L 383.084749 205.926861 
L 383.610875 205.73925 
L 385.189251 204.651102 
L 387.293753 203.562954 
L 387.819879 203.487909 
L 389.398256 202.69994 
L 389.924381 201.836927 
L 390.450507 201.386659 
L 390.976632 201.08648 
L 391.502758 200.973913 
L 392.555009 200.298511 
L 393.081135 200.185944 
L 394.133386 199.660631 
L 395.711762 198.985229 
L 396.764014 198.234783 
L 398.34239 196.808934 
L 399.394641 196.208577 
L 399.920767 195.645742 
L 402.025269 194.219893 
L 402.551395 193.619535 
L 403.07752 193.20679 
L 404.129771 192.831566 
L 405.182022 192.118642 
L 406.760399 191.330673 
L 407.286525 191.255628 
L 408.864901 190.430137 
L 409.917153 189.792257 
L 415.178408 187.916141 
L 415.704534 187.503395 
L 417.809036 186.715426 
L 418.335161 186.565337 
L 418.861287 186.152591 
L 421.491915 184.726742 
L 422.544166 182.663014 
L 423.596417 181.462299 
L 424.648668 180.824419 
L 426.227045 180.18654 
L 426.75317 180.111495 
L 427.279296 179.811316 
L 429.909924 178.985825 
L 430.436049 178.760691 
L 431.4883 178.047767 
L 433.066677 177.372365 
L 434.118928 176.809529 
L 434.645054 176.434306 
L 435.171179 176.209172 
L 435.697305 175.833949 
L 436.223431 175.271114 
L 437.275682 174.708279 
L 439.906309 173.319952 
L 443.063063 171.781537 
L 444.115314 171.443836 
L 445.693691 170.956045 
L 447.798193 170.017987 
L 448.850444 169.605241 
L 449.376569 169.192496 
L 450.428821 168.854795 
L 453.585574 167.241334 
L 454.637825 166.415843 
L 455.690076 166.040619 
L 456.216202 165.590351 
L 456.742327 165.515307 
L 457.794578 164.727338 
L 458.84683 164.202025 
L 459.372955 163.976891 
L 459.899081 163.451578 
L 463.58196 162.02573 
L 464.634211 161.575462 
L 466.212587 161.087671 
L 467.264839 160.937582 
L 467.790964 160.712448 
L 468.31709 160.637403 
L 469.369341 160.187135 
L 469.895466 160.149613 
L 471.999969 159.361644 
L 473.578345 158.273496 
L 476.208973 157.035259 
L 478.839601 155.60941 
L 479.365726 155.496843 
L 480.944103 154.596307 
L 482.52248 154.070995 
L 483.574731 153.733294 
L 485.679233 153.057892 
L 486.731484 152.720191 
L 488.309861 152.457534 
L 490.414363 151.782132 
L 490.940489 151.556998 
L 491.466614 151.481954 
L 491.99274 151.219297 
L 493.044991 151.031686 
L 494.623368 150.468851 
L 495.675619 150.356284 
L 497.253995 150.018582 
L 498.306247 149.830971 
L 499.358498 149.643359 
L 500.410749 149.418225 
L 503.567502 148.630256 
L 504.093628 148.330077 
L 506.724256 147.692198 
L 507.776507 147.354497 
L 513.563888 145.665992 
L 514.090013 145.140679 
L 515.142264 144.727933 
L 518.299018 143.602263 
L 518.825143 143.264562 
L 519.351269 143.151995 
L 519.877395 142.851817 
L 521.455771 142.401549 
L 522.508022 142.138892 
L 523.034148 141.801191 
L 523.560273 141.688624 
L 524.086399 141.238356 
L 525.664776 140.938177 
L 526.717027 140.450387 
L 527.243152 139.85003 
L 529.347655 139.362239 
L 533.030534 138.611793 
L 533.556659 138.611793 
L 534.082785 138.386659 
L 536.187287 138.011435 
L 536.713412 137.786301 
L 538.817915 137.411078 
L 539.870166 136.96081 
L 540.396291 136.923288 
L 549.340426 134.259202 
L 549.866551 134.034068 
L 550.392677 133.658845 
L 551.444928 133.358666 
L 552.497179 133.020965 
L 553.54943 132.608219 
L 555.127807 131.932817 
L 556.706184 131.82025 
L 558.810686 131.219893 
L 559.336812 130.882192 
L 560.389063 130.582013 
L 563.01969 129.418821 
L 563.545816 129.381298 
L 569.333197 127.392615 
L 571.963825 126.717213 
L 573.016076 126.229422 
L 574.068327 126.004288 
L 574.594453 125.891721 
L 575.120578 125.478976 
L 575.646704 125.216319 
L 576.172829 124.57844 
L 576.698955 124.203216 
L 577.751206 123.903038 
L 578.277332 123.490292 
L 580.907959 122.402144 
L 581.434085 122.289577 
L 581.960211 121.951876 
L 583.012462 121.651697 
L 583.538587 121.313996 
L 586.169215 120.450983 
L 587.747592 119.550447 
L 588.273717 119.43788 
L 589.325968 118.837522 
L 589.852094 118.612388 
L 590.904345 117.974509 
L 592.482722 117.224062 
L 593.008847 116.848839 
L 594.061098 116.511138 
L 595.11335 115.91078 
L 595.639475 115.723169 
L 596.165601 115.347945 
L 603.005233 112.984038 
L 603.531359 112.871471 
L 604.057484 112.53377 
L 604.58361 112.458725 
L 605.635861 112.196069 
L 606.688112 111.970935 
L 610.370991 110.169863 
L 610.897116 110.094818 
L 612.475493 109.231805 
L 615.632246 107.993568 
L 617.736749 107.168076 
L 618.262874 107.017987 
L 618.789 106.680286 
L 619.841251 106.530197 
L 620.367376 106.192496 
L 620.893502 106.154973 
L 621.945753 105.817272 
L 622.998004 105.291959 
L 623.52413 105.216915 
L 626.154758 104.166289 
L 627.733134 103.716021 
L 628.785385 103.453365 
L 630.363762 103.003097 
L 631.416013 102.590351 
L 633.520515 101.464681 
L 634.572767 101.051936 
L 635.098892 100.714235 
L 636.151143 100.489101 
L 636.677269 100.188922 
L 637.203394 100.076355 
L 638.781771 99.250864 
L 639.834022 98.838118 
L 641.412399 98.125194 
L 642.990776 97.712448 
L 646.147529 96.474211 
L 647.725906 95.948898 
L 655.617789 92.571888 
L 656.143915 92.496843 
L 658.774542 91.446218 
L 659.300668 91.070995 
L 661.40517 90.35807 
L 661.931296 90.35807 
L 662.983547 89.907802 
L 664.035798 88.969744 
L 664.561923 88.519476 
L 666.1403 87.769029 
L 666.666426 87.656462 
L 667.192551 87.393806 
L 667.718677 87.318761 
L 668.244802 86.943538 
L 668.770928 86.830971 
L 669.823179 86.193091 
L 671.401556 85.405122 
L 672.453807 84.992376 
L 672.979932 84.72972 
L 675.61056 84.09184 
L 676.136686 83.829184 
L 677.715062 83.378916 
L 679.819565 82.365813 
L 680.871816 81.878023 
L 681.924067 81.615366 
L 684.028569 80.639786 
L 684.554695 80.489696 
L 685.08082 80.151995 
L 688.237574 79.026325 
L 689.81595 78.088267 
L 690.342076 77.9757 
L 691.394327 77.450387 
L 692.446578 77.075164 
L 692.972704 76.624896 
L 693.498829 76.324717 
L 695.077206 75.836927 
L 696.129457 75.124002 
L 696.655583 75.08648 
L 697.707834 74.786301 
L 698.760085 74.4486 
L 699.28621 74.185944 
L 699.812336 74.110899 
L 701.390713 73.548064 
L 702.969089 72.985229 
L 704.02134 72.572484 
L 704.547466 72.159738 
L 706.125843 71.746992 
L 706.651968 71.446814 
L 707.704219 71.184157 
L 709.282596 70.321144 
L 709.808722 70.283621 
L 711.387098 69.795831 
L 712.439349 69.683264 
L 713.491601 69.270518 
L 716.648354 68.369982 
L 717.700605 68.33246 
L 720.857358 67.319357 
L 721.383484 67.244312 
L 722.961861 66.418821 
L 723.487986 65.968553 
L 724.540237 65.368195 
L 726.118614 64.355092 
L 729.275367 63.266945 
L 729.801493 62.854199 
L 731.37987 62.141275 
L 731.905995 62.028708 
L 732.958246 61.540917 
L 734.536623 61.128172 
L 736.115 60.45277 
L 737.167251 59.964979 
L 738.745627 59.327099 
L 739.271753 59.214532 
L 740.85013 58.464086 
L 741.376255 58.351519 
L 742.428506 57.638594 
L 744.006883 57.188326 
L 744.533009 56.813103 
L 745.059134 56.587969 
L 745.58526 56.100179 
L 746.111385 56.025134 
L 746.637511 55.8 
L 747.163636 55.8 
L 747.163636 55.8 
" clip-path="url(#p7fb41e40c1)" style="fill: none; stroke: #1f77b4; stroke-width: 1.5; stroke-linecap: square"/>
   </g>
   <g id="line2d_40">
    <path d="M 138.962489 307.8 
L 140.540866 307.724955 
L 142.119243 307.687433 
L 145.275996 307.612388 
L 147.906624 307.499821 
L 150.011126 307.499821 
L 150.537252 307.349732 
L 152.641754 307.274687 
L 154.22013 307.087076 
L 155.798507 306.936986 
L 158.95526 306.786897 
L 159.481386 306.786897 
L 160.533637 306.67433 
L 163.690391 306.524241 
L 167.373269 306.449196 
L 170.003897 306.336629 
L 176.317404 306.261584 
L 178.948032 306.149017 
L 182.104785 306.073973 
L 184.209287 305.998928 
L 188.944417 305.923883 
L 190.522794 305.886361 
L 192.101171 305.848839 
L 193.679547 305.661227 
L 196.836301 305.623705 
L 197.888552 305.54866 
L 202.097556 305.473615 
L 207.358812 305.173437 
L 211.041691 305.098392 
L 212.093942 305.023347 
L 213.672319 304.948303 
L 216.829072 304.798213 
L 218.933574 304.760691 
L 220.511951 304.610602 
L 227.351583 304.197856 
L 229.982211 304.122811 
L 234.717341 303.860155 
L 236.295718 303.78511 
L 241.556973 303.484932 
L 247.344355 303.409887 
L 249.448857 303.184753 
L 250.501108 303.109708 
L 257.34074 302.546873 
L 260.497494 302.134127 
L 262.601996 302.059083 
L 266.811 301.496248 
L 269.967754 301.421203 
L 271.54613 301.271114 
L 272.598381 301.233591 
L 273.650633 301.121024 
L 275.229009 301.04598 
L 276.807386 300.820846 
L 277.333511 300.820846 
L 278.911888 300.595712 
L 281.01639 300.520667 
L 282.068641 300.445622 
L 284.173144 300.370578 
L 285.225395 300.295533 
L 287.856023 300.032877 
L 288.908274 299.845265 
L 290.48665 299.807743 
L 291.538902 299.732698 
L 294.169529 299.657653 
L 301.009162 299.244908 
L 302.587538 299.169863 
L 309.427171 298.757117 
L 313.11005 298.682073 
L 314.162301 298.569506 
L 317.84518 298.494461 
L 321.528058 298.306849 
L 327.31544 298.231805 
L 330.998319 298.044193 
L 335.207323 297.969148 
L 339.416327 297.744014 
L 343.099206 297.66897 
L 353.095592 297.03109 
L 358.356848 296.956045 
L 360.46135 296.730911 
L 362.039727 296.693389 
L 363.618103 296.655867 
L 365.722605 296.430733 
L 370.983861 296.130554 
L 374.140614 296.055509 
L 375.718991 296.017987 
L 377.297368 295.980465 
L 378.875744 295.830375 
L 383.084749 295.755331 
L 384.137 295.605241 
L 385.189251 295.530197 
L 387.819879 295.41763 
L 388.87213 295.342585 
L 389.924381 295.26754 
L 394.659511 295.192496 
L 395.711762 295.079929 
L 397.816265 295.042406 
L 398.868516 294.929839 
L 400.446892 294.742228 
L 401.499144 294.667183 
L 406.234274 294.404527 
L 407.286525 294.367004 
L 408.864901 294.216915 
L 410.443278 294.179392 
L 412.021655 294.104348 
L 414.652283 293.991781 
L 422.01804 293.916736 
L 425.700919 293.729124 
L 429.909924 293.65408 
L 432.014426 293.579035 
L 434.118928 293.541513 
L 435.171179 293.428946 
L 437.275682 293.353901 
L 442.536937 293.053722 
L 445.693691 293.0162 
L 447.272067 292.866111 
L 448.850444 292.828588 
L 452.533323 292.753544 
L 454.637825 292.678499 
L 460.951332 292.603454 
L 463.58196 292.490887 
L 466.738713 292.415843 
L 468.31709 292.228231 
L 471.473843 292.190709 
L 473.05222 292.040619 
L 475.156722 291.965575 
L 481.470229 291.89053 
L 484.100856 291.777963 
L 493.044991 291.740441 
L 494.097242 291.665396 
L 495.675619 291.627874 
L 502.515251 291.552829 
L 503.567502 291.477784 
L 509.354883 291.40274 
L 511.459386 291.327695 
L 521.455771 291.25265 
L 523.034148 291.215128 
L 527.769278 291.140083 
L 528.821529 291.065039 
L 541.448542 290.989994 
L 543.026919 290.952472 
L 557.232309 290.877427 
L 558.810686 290.839905 
L 568.280946 290.76486 
L 569.333197 290.689815 
L 571.963825 290.614771 
L 573.542202 290.464681 
L 576.172829 290.389637 
L 579.329583 290.239547 
L 583.538587 290.164503 
L 584.590838 290.089458 
L 588.799843 290.014413 
L 591.956596 289.864324 
L 594.587224 289.789279 
L 598.796228 289.564145 
L 601.952982 289.489101 
L 604.057484 289.414056 
L 610.897116 289.339011 
L 613.001619 289.263967 
L 617.210623 289.188922 
L 620.893502 289.00131 
L 625.628632 288.926266 
L 626.680883 288.851221 
L 636.151143 288.776176 
L 637.72952 288.738654 
L 640.360148 288.701132 
L 642.46465 288.475998 
L 644.043027 288.438475 
L 647.19978 288.363431 
L 652.461036 288.063252 
L 655.091663 287.988207 
L 657.196166 287.913163 
L 662.983547 287.838118 
L 665.614175 287.537939 
L 667.718677 287.462895 
L 671.401556 287.38785 
L 672.453807 287.275283 
L 676.662811 287.200238 
L 679.293439 287.087671 
L 686.133071 287.050149 
L 687.185323 286.937582 
L 690.868201 286.862537 
L 692.446578 286.825015 
L 695.077206 286.74997 
L 696.655583 286.712448 
L 705.599717 286.637403 
L 708.230345 286.524836 
L 715.596103 286.449792 
L 717.700605 286.374747 
L 723.487986 286.299702 
L 724.540237 286.187135 
L 729.275367 286.149613 
L 730.327618 286.074568 
L 732.958246 285.999524 
L 734.536623 285.962001 
L 741.376255 285.886957 
L 742.954632 285.849434 
L 744.006883 285.77439 
L 745.58526 285.736867 
L 746.111385 285.736867 
L 747.163636 285.6243 
L 747.163636 285.6243 
" clip-path="url(#p7fb41e40c1)" style="fill: none; stroke: #ff7f0e; stroke-width: 1.5; stroke-linecap: square"/>
   </g>
   <g id="patch_3">
    <path d="M 108 320.4 
L 108 43.2 
" style="fill: none; stroke: #a9a9a9; stroke-width: 0.8; stroke-linejoin: miter; stroke-linecap: square"/>
   </g>
   <g id="patch_4">
    <path d="M 777.6 320.4 
L 777.6 43.2 
" style="fill: none"/>
   </g>
   <g id="patch_5">
    <path d="M 108 320.4 
L 777.6 320.4 
" style="fill: none; stroke: #a9a9a9; stroke-width: 0.8; stroke-linejoin: miter; stroke-linecap: square"/>
   </g>
   <g id="patch_6">
    <path d="M 108 43.2 
L 777.6 43.2 
" style="fill: none"/>
   </g>
   <g id="text_20">
    <!-- get_subscribe history -->
    <g style="fill: #a9a9a9" transform="translate(378.6075 37.2) scale(0.12 -0.12)">
     <defs>
      <path id="DejaVuSans-67" d="M 2906 1791 
Q 2906 2416 2648 2759 
Q 2391 3103 1925 3103 
Q 1463 3103 1205 2759 
Q 947 2416 947 1791 
Q 947 1169 1205 825 
Q 1463 481 1925 481 
Q 2391 481 2648 825 
Q 2906 1169 2906 1791 
z
M 3481 434 
Q 3481 -459 3084 -895 
Q 2688 -1331 1869 -1331 
Q 1566 -1331 1297 -1286 
Q 1028 -1241 775 -1147 
L 775 -588 
Q 1028 -725 1275 -790 
Q 1522 -856 1778 -856 
Q 2344 -856 2625 -561 
Q 2906 -266 2906 331 
L 2906 616 
Q 2728 306 2450 153 
Q 2172 0 1784 0 
Q 1141 0 747 490 
Q 353 981 353 1791 
Q 353 2603 747 3093 
Q 1141 3584 1784 3584 
Q 2172 3584 2450 3431 
Q 2728 3278 2906 2969 
L 2906 3500 
L 3481 3500 
L 3481 434 
z
" transform="scale(0.015625)"/>
      <path id="DejaVuSans-65" d="M 3597 1894 
L 3597 1613 
L 953 1613 
Q 991 1019 1311 708 
Q 1631 397 2203 397 
Q 2534 397 2845 478 
Q 3156 559 3463 722 
L 3463 178 
Q 3153 47 2828 -22 
Q 2503 -91 2169 -91 
Q 1331 -91 842 396 
Q 353 884 353 1716 
Q 353 2575 817 3079 
Q 1281 3584 2069 3584 
Q 2775 3584 3186 3129 
Q 3597 2675 3597 1894 
z
M 3022 2063 
Q 3016 2534 2758 2815 
Q 2500 3097 2075 3097 
Q 1594 3097 1305 2825 
Q 1016 2553 972 2059 
L 3022 2063 
z
" transform="scale(0.015625)"/>
      <path id="DejaVuSans-74" d="M 1172 4494 
L 1172 3500 
L 2356 3500 
L 2356 3053 
L 1172 3053 
L 1172 1153 
Q 1172 725 1289 603 
Q 1406 481 1766 481 
L 2356 481 
L 2356 0 
L 1766 0 
Q 1100 0 847 248 
Q 594 497 594 1153 
L 594 3053 
L 172 3053 
L 172 3500 
L 594 3500 
L 594 4494 
L 1172 4494 
z
" transform="scale(0.015625)"/>
      <path id="DejaVuSans-5f" d="M 3263 -1063 
L 3263 -1509 
L -63 -1509 
L -63 -1063 
L 3263 -1063 
z
" transform="scale(0.015625)"/>
      <path id="DejaVuSans-73" d="M 2834 3397 
L 2834 2853 
Q 2591 2978 2328 3040 
Q 2066 3103 1784 3103 
Q 1356 3103 1142 2972 
Q 928 2841 928 2578 
Q 928 2378 1081 2264 
Q 1234 2150 1697 2047 
L 1894 2003 
Q 2506 1872 2764 1633 
Q 3022 1394 3022 966 
Q 3022 478 2636 193 
Q 2250 -91 1575 -91 
Q 1294 -91 989 -36 
Q 684 19 347 128 
L 347 722 
Q 666 556 975 473 
Q 1284 391 1588 391 
Q 1994 391 2212 530 
Q 2431 669 2431 922 
Q 2431 1156 2273 1281 
Q 2116 1406 1581 1522 
L 1381 1569 
Q 847 1681 609 1914 
Q 372 2147 372 2553 
Q 372 3047 722 3315 
Q 1072 3584 1716 3584 
Q 2034 3584 2315 3537 
Q 2597 3491 2834 3397 
z
" transform="scale(0.015625)"/>
      <path id="DejaVuSans-75" d="M 544 1381 
L 544 3500 
L 1119 3500 
L 1119 1403 
Q 1119 906 1312 657 
Q 1506 409 1894 409 
Q 2359 409 2629 706 
Q 2900 1003 2900 1516 
L 2900 3500 
L 3475 3500 
L 3475 0 
L 2900 0 
L 2900 538 
Q 2691 219 2414 64 
Q 2138 -91 1772 -91 
Q 1169 -91 856 284 
Q 544 659 544 1381 
z
M 1991 3584 
L 1991 3584 
z
" transform="scale(0.015625)"/>
      <path id="DejaVuSans-62" d="M 3116 1747 
Q 3116 2381 2855 2742 
Q 2594 3103 2138 3103 
Q 1681 3103 1420 2742 
Q 1159 2381 1159 1747 
Q 1159 1113 1420 752 
Q 1681 391 2138 391 
Q 2594 391 2855 752 
Q 3116 1113 3116 1747 
z
M 1159 2969 
Q 1341 3281 1617 3432 
Q 1894 3584 2278 3584 
Q 2916 3584 3314 3078 
Q 3713 2572 3713 1747 
Q 3713 922 3314 415 
Q 2916 -91 2278 -91 
Q 1894 -91 1617 61 
Q 1341 213 1159 525 
L 1159 0 
L 581 0 
L 581 4863 
L 1159 4863 
L 1159 2969 
z
" transform="scale(0.015625)"/>
      <path id="DejaVuSans-63" d="M 3122 3366 
L 3122 2828 
Q 2878 2963 2633 3030 
Q 2388 3097 2138 3097 
Q 1578 3097 1268 2742 
Q 959 2388 959 1747 
Q 959 1106 1268 751 
Q 1578 397 2138 397 
Q 2388 397 2633 464 
Q 2878 531 3122 666 
L 3122 134 
Q 2881 22 2623 -34 
Q 2366 -91 2075 -91 
Q 1284 -91 818 406 
Q 353 903 353 1747 
Q 353 2603 823 3093 
Q 1294 3584 2113 3584 
Q 2378 3584 2631 3529 
Q 2884 3475 3122 3366 
z
" transform="scale(0.015625)"/>
      <path id="DejaVuSans-72" d="M 2631 2963 
Q 2534 3019 2420 3045 
Q 2306 3072 2169 3072 
Q 1681 3072 1420 2755 
Q 1159 2438 1159 1844 
L 1159 0 
L 581 0 
L 581 3500 
L 1159 3500 
L 1159 2956 
Q 1341 3275 1631 3429 
Q 1922 3584 2338 3584 
Q 2397 3584 2469 3576 
Q 2541 3569 2628 3553 
L 2631 2963 
z
" transform="scale(0.015625)"/>
      <path id="DejaVuSans-69" d="M 603 3500 
L 1178 3500 
L 1178 0 
L 603 0 
L 603 3500 
z
M 603 4863 
L 1178 4863 
L 1178 4134 
L 603 4134 
L 603 4863 
z
" transform="scale(0.015625)"/>
      <path id="DejaVuSans-20" transform="scale(0.015625)"/>
      <path id="DejaVuSans-68" d="M 3513 2113 
L 3513 0 
L 2938 0 
L 2938 2094 
Q 2938 2591 2744 2837 
Q 2550 3084 2163 3084 
Q 1697 3084 1428 2787 
Q 1159 2491 1159 1978 
L 1159 0 
L 581 0 
L 581 4863 
L 1159 4863 
L 1159 2956 
Q 1366 3272 1645 3428 
Q 1925 3584 2291 3584 
Q 2894 3584 3203 3211 
Q 3513 2838 3513 2113 
z
" transform="scale(0.015625)"/>
      <path id="DejaVuSans-6f" d="M 1959 3097 
Q 1497 3097 1228 2736 
Q 959 2375 959 1747 
Q 959 1119 1226 758 
Q 1494 397 1959 397 
Q 2419 397 2687 759 
Q 2956 1122 2956 1747 
Q 2956 2369 2687 2733 
Q 2419 3097 1959 3097 
z
M 1959 3584 
Q 2709 3584 3137 3096 
Q 3566 2609 3566 1747 
Q 3566 888 3137 398 
Q 2709 -91 1959 -91 
Q 1206 -91 779 398 
Q 353 888 353 1747 
Q 353 2609 779 3096 
Q 1206 3584 1959 3584 
z
" transform="scale(0.015625)"/>
      <path id="DejaVuSans-79" d="M 2059 -325 
Q 1816 -950 1584 -1140 
Q 1353 -1331 966 -1331 
L 506 -1331 
L 506 -850 
L 844 -850 
Q 1081 -850 1212 -737 
Q 1344 -625 1503 -206 
L 1606 56 
L 191 3500 
L 800 3500 
L 1894 763 
L 2988 3500 
L 3597 3500 
L 2059 -325 
z
" transform="scale(0.015625)"/>
     </defs>
     <use xlink:href="#DejaVuSans-67"/>
     <use xlink:href="#DejaVuSans-65" x="63.476562"/>
     <use xlink:href="#DejaVuSans-74" x="125"/>
     <use xlink:href="#DejaVuSans-5f" x="164.208984"/>
     <use xlink:href="#DejaVuSans-73" x="214.208984"/>
     <use xlink:href="#DejaVuSans-75" x="266.308594"/>
     <use xlink:href="#DejaVuSans-62" x="329.6875"/>
     <use xlink:href="#DejaVuSans-73" x="393.164062"/>
     <use xlink:href="#DejaVuSans-63" x="445.263672"/>
     <use xlink:href="#DejaVuSans-72" x="500.244141"/>
     <use xlink:href="#DejaVuSans-69" x="541.357422"/>
     <use xlink:href="#DejaVuSans-62" x="569.140625"/>
     <use xlink:href="#DejaVuSans-65" x="632.617188"/>
     <use xlink:href="#DejaVuSans-20" x="694.140625"/>
     <use xlink:href="#DejaVuSans-68" x="725.927734"/>
     <use xlink:href="#DejaVuSans-69" x="789.306641"/>
     <use xlink:href="#DejaVuSans-73" x="817.089844"/>
     <use xlink:href="#DejaVuSans-74" x="869.189453"/>
     <use xlink:href="#DejaVuSans-6f" x="908.398438"/>
     <use xlink:href="#DejaVuSans-72" x="969.580078"/>
     <use xlink:href="#DejaVuSans-79" x="1010.693359"/>
    </g>
   </g>
   <g id="legend_1">
    <g id="line2d_41">
     <path d="M 815.08 328.498438 
L 825.08 328.498438 
L 835.08 328.498438 
" style="fill: none; stroke: #1f77b4; stroke-width: 1.5; stroke-linecap: square"/>
    </g>
    <g id="text_21">
     <!-- star -->
     <g style="fill: #a9a9a9" transform="translate(843.08 331.998438) scale(0.1 -0.1)">
      <defs>
       <path id="DejaVuSans-61" d="M 2194 1759 
Q 1497 1759 1228 1600 
Q 959 1441 959 1056 
Q 959 750 1161 570 
Q 1363 391 1709 391 
Q 2188 391 2477 730 
Q 2766 1069 2766 1631 
L 2766 1759 
L 2194 1759 
z
M 3341 1997 
L 3341 0 
L 2766 0 
L 2766 531 
Q 2569 213 2275 61 
Q 1981 -91 1556 -91 
Q 1019 -91 701 211 
Q 384 513 384 1019 
Q 384 1609 779 1909 
Q 1175 2209 1959 2209 
L 2766 2209 
L 2766 2266 
Q 2766 2663 2505 2880 
Q 2244 3097 1772 3097 
Q 1472 3097 1187 3025 
Q 903 2953 641 2809 
L 641 3341 
Q 956 3463 1253 3523 
Q 1550 3584 1831 3584 
Q 2591 3584 2966 3190 
Q 3341 2797 3341 1997 
z
" transform="scale(0.015625)"/>
      </defs>
      <use xlink:href="#DejaVuSans-73"/>
      <use xlink:href="#DejaVuSans-74" x="52.099609"/>
      <use xlink:href="#DejaVuSans-61" x="91.308594"/>
      <use xlink:href="#DejaVuSans-72" x="152.587891"/>
     </g>
    </g>
    <g id="line2d_42">
     <path d="M 815.08 343.176562 
L 825.08 343.176562 
L 835.08 343.176562 
" style="fill: none; stroke: #ff7f0e; stroke-width: 1.5; stroke-linecap: square"/>
    </g>
    <g id="text_22">
     <!-- fork -->
     <g style="fill: #a9a9a9" transform="translate(843.08 346.676562) scale(0.1 -0.1)">
      <defs>
       <path id="DejaVuSans-66" d="M 2375 4863 
L 2375 4384 
L 1825 4384 
Q 1516 4384 1395 4259 
Q 1275 4134 1275 3809 
L 1275 3500 
L 2222 3500 
L 2222 3053 
L 1275 3053 
L 1275 0 
L 697 0 
L 697 3053 
L 147 3053 
L 147 3500 
L 697 3500 
L 697 3744 
Q 697 4328 969 4595 
Q 1241 4863 1831 4863 
L 2375 4863 
z
" transform="scale(0.015625)"/>
       <path id="DejaVuSans-6b" d="M 581 4863 
L 1159 4863 
L 1159 1991 
L 2875 3500 
L 3609 3500 
L 1753 1863 
L 3688 0 
L 2938 0 
L 1159 1709 
L 1159 0 
L 581 0 
L 581 4863 
z
" transform="scale(0.015625)"/>
      </defs>
      <use xlink:href="#DejaVuSans-66"/>
      <use xlink:href="#DejaVuSans-6f" x="35.205078"/>
      <use xlink:href="#DejaVuSans-72" x="96.386719"/>
      <use xlink:href="#DejaVuSans-6b" x="137.5"/>
     </g>
    </g>
   </g>
  </g>
 </g>
 <defs>
  <clipPath id="p7fb41e40c1">
   <rect x="108" y="43.2" width="669.6" height="277.2"/>
  </clipPath>
 </defs>
</svg>
